# xmcd
# 
# Track frame offsets:
#     150
#     18784
#     37434
#     52308
#     68613
#     85322
#     103054
#     118860
#     138569
#     150380
#     160898
#     176182
#     192107
#     203787
#     216996
#     230450
#     243353
#     259333
#     282939
#     301025
#     330814
# 
# Disc length: 4666
# 
# Revision: 1
# Processed by: cddbd v1.5.2PL0 Copyright (c) Steve Scherf et al.
# Submitted via: fre:ac v1.0.17
# 
DISCID=2f123815
DTITLE=Anna German - Z archiwum Polskiego Radia Anna German
DYEAR=2013
DGENRE=
TTITLE0=A kiedy wszystko zgaśnie
TTITLE1=Stanęliśmy nad jeziorem
TTITLE2=Ożeeń się Johny
TTITLE3=Skończył się czas pełen Ciebie
TTITLE4=Zaryzykujmy choć raz
TTITLE5=Jesienna rozłąka
TTITLE6=Jak Ty nic nie rozumiesz
TTITLE7=Znów odpływają okręty
TTITLE8=Don't make me over
TTITLE9=Mata-Hari Mambo
TTITLE10=Es geth um die Liebe
TTITLE11=Nic nie dzieli nas
TTITLE12=Pójdę z tobą miły
TTITLE13=To Give the Happiness
TTITLE14=Jak to będzie z nami
TTITLE15=Tańczył śmigły Jerzyk
TTITLE16=Tam, gdzie żagli srebrzyste łabędzie
TTITLE17=Śnieżna piosenka
TTITLE18=Sygnały czasu
TTITLE19=Hiroszima mon amour
TTITLE20=Prośba do Charona
EXTD=
EXTT0=
EXTT1=
EXTT2=
EXTT3=
EXTT4=
EXTT5=
EXTT6=
EXTT7=
EXTT8=
EXTT9=
EXTT10=
EXTT11=
EXTT12=
EXTT13=
EXTT14=
EXTT15=
EXTT16=
EXTT17=
EXTT18=
EXTT19=
EXTT20=
PLAYORDER=
